<svg width="605" height="562" xmlns="http://www.w3.org/2000/svg" xmlns:xlink="http://www.w3.org/1999/xlink" overflow="hidden"><defs><clipPath id="clip0"><rect x="190" y="134" width="605" height="562"/></clipPath><clipPath id="clip1"><rect x="190" y="135" width="525" height="560"/></clipPath><clipPath id="clip2"><rect x="190" y="135" width="525" height="560"/></clipPath><clipPath id="clip3"><path d="M697.47 278.534 794.596 413.035 654.867 513.936 557.742 379.435Z" fill-rule="evenodd" clip-rule="evenodd"/></clipPath><clipPath id="clip4"><path d="M697.47 278.534 794.596 413.035 654.867 513.936 557.742 379.435Z" fill-rule="evenodd" clip-rule="evenodd"/></clipPath><clipPath id="clip5"><path d="M681.752 248.756 816.889 435.895 629.754 571.03 494.617 383.891Z" fill-rule="evenodd" clip-rule="evenodd"/></clipPath></defs><g clip-path="url(#clip0)" transform="translate(-190 -134)"><g clip-path="url(#clip1)"><g clip-path="url(#clip2)"><path d="M329.259 354.009C329.259 369.605 341.952 382.298 357.548 382.298 373.144 382.298 385.837 369.605 385.837 354.009 385.837 338.413 373.144 325.72 357.548 325.72 341.948 325.72 329.259 338.41 329.259 354.009ZM371.458 354.009C371.458 361.678 365.221 367.915 357.552 367.915 349.883 367.915 343.646 361.678 343.646 354.009 343.646 346.339 349.883 340.103 357.552 340.103 365.217 340.103 371.458 346.34 371.458 354.009Z" transform="matrix(1.00153 0 0 1 81.39 118.747)"/><path d="M333.923 190.633C333.923 167.203 314.86 148.145 291.438 148.145 268.009 148.145 248.951 167.208 248.951 190.633 248.951 214.062 268.014 233.121 291.438 233.121 314.868 233.121 333.923 214.061 333.923 190.633ZM263.338 190.633C263.338 175.138 275.944 162.528 291.443 162.528 306.938 162.528 319.544 175.135 319.544 190.633 319.544 206.132 306.938 218.737 291.443 218.737 275.943 218.737 263.338 206.128 263.338 190.633Z" transform="matrix(1.00153 0 0 1 81.39 118.747)"/><path d="M450.358 129.698C469.954 129.698 485.903 113.75 485.903 94.1482 485.903 74.5517 469.958 58.6025 450.358 58.6025 430.757 58.6025 414.82 74.5507 414.82 94.1441 414.82 113.749 430.761 129.697 450.358 129.697ZM450.358 72.9911C462.024 72.9911 471.52 82.4825 471.52 94.1534 471.52 105.819 462.033 115.32 450.358 115.32 438.683 115.32 429.195 105.828 429.195 94.1534 429.203 82.4791 438.691 72.9911 450.358 72.9911Z" transform="matrix(1.00153 0 0 1 81.39 118.747)"/><path d="M432.101 367.92 432.101 382.303 585.532 382.303 585.532 423.531 516.246 423.531 516.246 437.915 585.535 437.915 585.535 524.06 523.438 524.06 523.438 474.355 490.357 474.355 490.357 423.531 410.77 423.531 410.77 354.969C410.77 333.948 398.482 315.784 380.743 307.139L349.127 231.598C357.37 220.016 362.278 205.905 362.278 190.635 362.278 189.559 362.162 188.512 362.118 187.448L430.018 147.601C436.351 150.017 443.193 151.405 450.362 151.405 451.12 151.405 451.862 151.317 452.617 151.289L487.616 202.442C487.139 204.063 486.729 205.709 486.412 207.394 483.98 220.341 486.733 233.444 494.158 244.296L509.428 266.625 540.294 245.511 525.02 223.178C523.23 220.565 522.576 217.415 523.161 214.289 523.747 211.17 525.501 208.465 528.114 206.684 533.351 203.1 541.064 204.589 544.609 209.778L559.879 232.12 590.745 211.006 575.474 188.672C567.079 176.396 553.611 168.718 538.901 167.482L503.408 115.603C506.101 108.969 507.614 101.737 507.614 94.1478 507.614 62.5791 481.929 36.8943 450.361 36.8943 420.12 36.8943 395.347 60.472 393.308 90.1985L326.7 129.28C316.298 123.28 304.279 119.792 291.436 119.792 252.372 119.792 220.594 151.569 220.594 190.634 220.594 226.513 247.435 256.179 282.082 260.777L310.836 329.488C306.687 337.053 304.331 345.733 304.331 354.96L304.331 423.522 228.577 423.526 228.577 474.35 195.496 474.35 195.496 524.055 133.648 524.055 133.648 437.914 202.688 437.914 202.688 423.531 133.648 423.531 133.648 382.302 287.079 382.302 287.079 367.919 119.265 367.919 119.265 538.445 599.92 538.445 599.92 367.919ZM396.383 354.969 396.383 397.164 318.71 397.164 318.71 354.969C318.71 333.554 336.131 316.133 357.546 316.133 378.957 316.133 396.383 333.559 396.383 354.969ZM357.55 301.749C343.375 301.749 330.509 307.36 320.966 316.426L297.829 261.151C313.38 259.754 327.459 253.285 338.487 243.441L363.004 302.026C361.206 301.845 359.388 301.749 357.55 301.749ZM563.594 196.791 570.749 207.258 563.626 212.13 556.474 201.671C551.578 194.516 543.467 190.246 534.779 190.246 529.481 190.246 524.36 191.827 519.994 194.825 514.211 198.778 510.31 204.754 509.021 211.648 507.721 218.547 509.19 225.53 513.151 231.309L520.302 241.768 513.179 246.648 506.023 236.19C500.778 228.516 498.827 219.234 500.553 210.063 502.275 200.893 507.444 192.951 515.126 187.701 520.937 183.724 527.728 181.621 534.754 181.621 546.308 181.609 557.096 187.287 563.593 196.791ZM522.446 168.902C516.98 170.323 511.746 172.566 506.999 175.817 502.231 179.072 498.198 183.101 494.906 187.653L468.154 148.54C479.047 144.968 488.473 138.214 495.396 129.377ZM450.356 51.2864C473.99 51.2864 493.226 70.5223 493.226 94.1564 493.226 117.791 473.99 137.026 450.356 137.026 426.721 137.026 407.486 117.791 407.486 94.1564 407.486 70.5182 426.721 51.2864 450.356 51.2864ZM394.415 106.236C397.317 119.676 404.954 131.331 415.485 139.457L359.745 172.165C356.193 159.078 349.009 147.508 339.302 138.579ZM234.974 190.642C234.974 159.511 260.301 134.184 291.432 134.184 322.563 134.184 347.891 159.511 347.891 190.642 347.891 221.773 322.563 247.1 291.432 247.1 260.301 247.096 234.974 221.769 234.974 190.642ZM318.711 411.552 396.384 411.552 396.384 423.536 318.711 423.536ZM242.953 437.919 475.965 437.919 475.965 474.36 242.953 474.36ZM209.872 524.064 209.872 513.597 251.586 513.597 251.586 499.213 209.872 499.213 209.872 488.746 509.049 488.746 509.049 499.213 378.713 499.217 378.713 513.601 509.038 513.601 509.038 524.068Z" transform="matrix(1.00153 0 0 1 81.39 118.747)"/><path d="M261.656 499.21 302.973 499.21 302.973 513.594 261.656 513.594Z" transform="matrix(1.00153 0 0 1 81.39 118.747)"/><path d="M309.687 499.21 325.985 499.21 325.985 513.594 309.687 513.594Z" transform="matrix(1.00153 0 0 1 81.39 118.747)"/><path d="M332.69 499.21 348.988 499.21 348.988 513.594 332.69 513.594Z" transform="matrix(1.00153 0 0 1 81.39 118.747)"/><path d="M355.714 499.21 372.012 499.21 372.012 513.594 355.714 513.594Z" transform="matrix(1.00153 0 0 1 81.39 118.747)"/><path d="M19.2801-1.15582C18.2848-0.642121 17.2453-0.256848 16.1658 0 15.0943 0.264872 13.9706 0.40132 12.7947 0.40132 9.30325 0.40132 6.53812-0.569885 4.49536-2.52038 2.44859-4.4788 1.42921-7.12762 1.42921-10.4666 1.42921-13.8137 2.44858-16.4624 4.49536-18.4129 6.53812-20.3713 9.30325-21.3506 12.7947-21.3506 13.9706-21.3506 15.0944-21.2142 16.1658-20.9493 17.2454-20.6925 18.2848-20.3072 19.2801-19.7935L19.2801-15.4591C18.2727-16.1334 17.2815-16.631 16.3103-16.952 15.3351-17.2731 14.3077-17.4336 13.2281-17.4336 11.3017-17.4336 9.78468-16.8116 8.68507-15.5715 7.58144-14.3394 7.03158-12.6378 7.03158-10.4666 7.03158-8.3034 7.5814-6.60183 8.68507-5.36167 9.78468-4.12962 11.3017-3.51554 13.2281-3.51554 14.3077-3.51554 15.3351-3.66805 16.3103-3.98108 17.2815-4.30214 18.2728-4.80379 19.2801-5.49011Z" transform="matrix(1.00153 0 0 1 153.417 780.388)"/><path d="M14.1102-11.4462C13.6607-11.6468 13.2153-11.7993 12.7778-11.8957 12.3484-12 11.9149-12.0562 11.4775-12.0562 10.1813-12.0562 9.18592-11.6388 8.49171-10.804 7.7934-9.97728 7.44829-8.79741 7.44829-7.25632L7.44829-0.000359587 2.42372-0.000359587 2.42372-15.7318 7.44829-15.7318 7.44829-13.1473C8.09041-14.1747 8.8289-14.9212 9.66355-15.3947 10.5063-15.8763 11.5137-16.1171 12.6815-16.1171 12.8501-16.1171 13.0347-16.1051 13.2273-16.085 13.428-16.0729 13.7169-16.0449 14.0942-16.0047Z" transform="matrix(1.00153 0 0 1 174.563 780.388)"/><path d="M18.1242-7.91411 18.1242-6.46939 6.35751-6.46939C6.48593-5.28953 6.91133-4.40659 7.64175-3.82067 8.36815-3.23072 9.3915-2.93775 10.7079-2.93775 11.7673-2.93775 12.8469-3.09025 13.9506-3.40328 15.0622-3.72434 16.202-4.19791 17.3698-4.83197L17.3698-0.963222C16.182-0.513737 14.994-0.176629 13.806 0.0481231 12.6181 0.280889 11.4302 0.401289 10.2422 0.401289 7.39281 0.401289 5.17744-0.321091 3.59618-1.76589 2.02304-3.21061 1.23636-5.23735 1.23636-7.85001 1.23636-10.4185 2.01093-12.4331 3.56403-13.902 5.11313-15.3788 7.24415-16.1172 9.95318-16.1172 12.4253-16.1172 14.4038-15.3668 15.8927-13.8698 17.3776-12.3809 18.1241-10.3944 18.1241-7.91412ZM12.9552-9.58362C12.9552-10.5348 12.6743-11.3013 12.1205-11.8792 11.5626-12.4652 10.8362-12.7622 9.93725-12.7622 8.96203-12.7622 8.17137-12.4893 7.56141-11.9434 6.95144-11.3976 6.57014-10.611 6.42162-9.58362Z" transform="matrix(1.00153 0 0 1 188.772 780.388)"/><path d="M9.47133-7.07935C8.4199-7.07935 7.62921-6.90276 7.09548-6.54961 6.56975-6.19644 6.30889-5.6707 6.30889-4.97647 6.30889-4.33434 6.52159-3.82866 6.95101-3.46743 7.37641-3.11426 7.96636-2.93769 8.71689-2.93769 9.66803-2.93769 10.4666-3.27479 11.1088-3.94903 11.7589-4.63128 12.088-5.48211 12.088-6.50149L12.088-7.07939ZM17.1447-8.97366 17.1447 0 12.088 0 12.088-2.32766C11.4138-1.3725 10.6513-0.678182 9.80842-0.240821 8.96162 0.184581 7.93425 0.4013 6.72624 0.4013 5.0969 0.4013 3.77649-0.0682497 2.76112-1.01137 1.74175-1.96251 1.23606-3.19858 1.23606-4.71964 1.23606-6.55775 1.86614-7.9062 3.13036-8.765 4.40258-9.63186 6.39716-10.0653 9.11811-10.0653L12.0879-10.0653 12.0879-10.4666C12.0879-11.2572 11.7709-11.8351 11.1408-12.2003 10.5067-12.5735 9.52745-12.7622 8.20303-12.7622 7.11944-12.7622 6.11619-12.6538 5.18507-12.4411 4.26202-12.2244 3.40716-11.9033 2.61658-11.4779L2.61658-15.3146C3.68415-15.5715 4.75962-15.7681 5.84321-15.9086 6.93482-16.045 8.02642-16.1173 9.11803-16.1173 11.9514-16.1173 13.9981-15.5554 15.2503-14.4317 16.5105-13.3161 17.1446-11.498 17.1446-8.9737Z" transform="matrix(1.00153 0 0 1 208.31 780.388)"/><path d="M7.91411-20.1944 7.91411-15.7316 13.0993-15.7316 13.0993-12.1358 7.91411-12.1358 7.91411-5.45772C7.91411-4.7273 8.05858-4.23769 8.34755-3.98084 8.63651-3.72399 9.20639-3.59557 10.0652-3.59557L12.6498-3.59557 12.6498 0.000308218 8.34755 0.000308218C6.35697 0.000308218 4.94431-0.409046 4.10955-1.23575 3.28282-2.0705 2.87349-3.47516 2.87349-5.45772L2.87349-12.1358 0.385252-12.1358 0.385252-15.7316 2.87349-15.7316 2.87349-20.1944Z" transform="matrix(1.00153 0 0 1 227.752 780.388)"/><path d="M18.1242-7.91411 18.1242-6.46939 6.35751-6.46939C6.48593-5.28953 6.91133-4.40659 7.64175-3.82067 8.36815-3.23072 9.3915-2.93775 10.7079-2.93775 11.7673-2.93775 12.8469-3.09025 13.9506-3.40328 15.0622-3.72434 16.202-4.19791 17.3698-4.83197L17.3698-0.963222C16.182-0.513737 14.994-0.176629 13.806 0.0481231 12.6181 0.280889 11.4302 0.401289 10.2422 0.401289 7.39281 0.401289 5.17744-0.321091 3.59618-1.76589 2.02304-3.21061 1.23636-5.23735 1.23636-7.85001 1.23636-10.4185 2.01093-12.4331 3.56403-13.902 5.11313-15.3788 7.24415-16.1172 9.95318-16.1172 12.4253-16.1172 14.4038-15.3668 15.8927-13.8698 17.3776-12.3809 18.1241-10.3944 18.1241-7.91412ZM12.9552-9.58362C12.9552-10.5348 12.6743-11.3013 12.1205-11.8792 11.5626-12.4652 10.8362-12.7622 9.93725-12.7622 8.96203-12.7622 8.17137-12.4893 7.56141-11.9434 6.95144-11.3976 6.57014-10.611 6.42162-9.58362Z" transform="matrix(1.00153 0 0 1 241.526 780.388)"/><path d="M13.1157-13.4362 13.1157-21.864 18.1724-21.864 18.1724-0.000102739 13.1157-0.000102739 13.1157-2.27968C12.4294-1.34861 11.671-0.666367 10.8361-0.240924 10.0013 0.18452 9.03017 0.401197 7.93055 0.401197 5.99217 0.401197 4.40289-0.369348 3.16283-1.91044 1.91876-3.45153 1.30068-5.43008 1.30068-7.85 1.30068-10.278 1.91872-12.2646 3.16283-13.8057 4.40289-15.3468 5.99217-16.1173 7.93055-16.1173 9.02215-16.1173 9.98533-15.8966 10.8201-15.4592 11.6629-15.0177 12.4294-14.3435 13.1157-13.4364ZM9.80873-3.24255C10.8763-3.24255 11.6949-3.63184 12.2648-4.4144 12.8307-5.20501 13.1156-6.34877 13.1156-7.8498 13.1156-9.34671 12.8307-10.4865 12.2648-11.2691 11.6949-12.0597 10.8762-12.4569 9.80873-12.4569 8.73715-12.4569 7.91853-12.0596 7.35264-11.2691 6.78276-10.4865 6.50183-9.34671 6.50183-7.8498 6.50183-6.34888 6.78277-5.20508 7.35264-4.4144 7.91851-3.63181 8.73726-3.24255 9.80873-3.24255Z" transform="matrix(1.00153 0 0 1 261.064 780.388)"/><path d="M10.7876-3.24266C11.8672-3.24266 12.6899-3.63195 13.2597-4.4145 13.8256-5.20511 14.1105-6.34888 14.1105-7.8499 14.1105-9.34681 13.8256-10.4866 13.2597-11.2692 12.6899-12.0598 11.8671-12.457 10.7876-12.457 9.70403-12.457 8.87729-12.0597 8.29938-11.2692 7.7295-10.4745 7.44858-9.33479 7.44858-7.8499 7.44858-6.361 7.72951-5.22121 8.29938-4.43063 8.87729-3.63601 9.70403-3.24276 10.7876-3.24276ZM7.4486-13.4363C8.14289-14.3433 8.90945-15.0176 9.7442-15.4591 10.587-15.8965 11.5582-16.1172 12.6498-16.1172 14.5962-16.1172 16.1895-15.3467 17.4335-13.8056 18.6736-12.2645 19.2957-10.278 19.2957-7.84992 19.2957-5.42989 18.6736-3.45144 17.4335-1.91035 16.1895-0.369266 14.5962 0.401279 12.6498 0.401279 11.5582 0.401279 10.587 0.184561 9.7442-0.240841 8.90945-0.678285 8.14291-1.35649 7.4486-2.2796L7.4486-2.05479e-05 2.42403-2.05479e-05 2.42403-21.864 7.4486-21.864Z" transform="matrix(1.00153 0 0 1 291.72 780.388)"/><path d="M0.353166-15.7314 5.37773-15.7314 9.61573-5.0558 13.2116-15.7314 18.2362-15.7314 11.6223 1.49383C10.9561 3.23557 10.1816 4.4556 9.29467 5.15392 8.40372 5.86025 7.23988 6.21336 5.79516 6.21336L2.87346 6.21336 2.87346 2.90639 4.44661 2.90639C5.30143 2.90639 5.92349 2.76593 6.30876 2.48901 6.70205 2.22012 7.00707 1.73853 7.22377 1.04429L7.36825 0.610857Z" transform="matrix(1.00153 0 0 1 312.344 780.388)"/><path d="M19.2801-1.15582C18.2848-0.642121 17.2453-0.256848 16.1658 0 15.0943 0.264872 13.9706 0.40132 12.7947 0.40132 9.30325 0.40132 6.53812-0.569885 4.49536-2.52038 2.44859-4.4788 1.42921-7.12762 1.42921-10.4666 1.42921-13.8137 2.44858-16.4624 4.49536-18.4129 6.53812-20.3713 9.30325-21.3506 12.7947-21.3506 13.9706-21.3506 15.0944-21.2142 16.1658-20.9493 17.2454-20.6925 18.2848-20.3072 19.2801-19.7935L19.2801-15.4591C18.2727-16.1334 17.2815-16.631 16.3103-16.952 15.3351-17.2731 14.3077-17.4336 13.2281-17.4336 11.3017-17.4336 9.78468-16.8116 8.68507-15.5715 7.58144-14.3394 7.03158-12.6378 7.03158-10.4666 7.03158-8.3034 7.5814-6.60183 8.68507-5.36167 9.78468-4.12962 11.3017-3.51554 13.2281-3.51554 14.3077-3.51554 15.3351-3.66805 16.3103-3.98108 17.2815-4.30214 18.2728-4.80379 19.2801-5.49011Z" transform="matrix(1.00153 0 0 1 341.155 780.388)"/><path d="M14.1102-11.4462C13.6607-11.6468 13.2153-11.7993 12.7778-11.8957 12.3484-12 11.9149-12.0562 11.4775-12.0562 10.1813-12.0562 9.18592-11.6388 8.49171-10.804 7.7934-9.97728 7.44829-8.79741 7.44829-7.25632L7.44829-0.000359587 2.42372-0.000359587 2.42372-15.7318 7.44829-15.7318 7.44829-13.1473C8.09041-14.1747 8.8289-14.9212 9.66355-15.3947 10.5063-15.8763 11.5137-16.1171 12.6815-16.1171 12.8501-16.1171 13.0347-16.1051 13.2273-16.085 13.428-16.0729 13.7169-16.0449 14.0942-16.0047Z" transform="matrix(1.00153 0 0 1 362.297 780.388)"/><path d="M18.1242-7.91411 18.1242-6.46939 6.35751-6.46939C6.48593-5.28953 6.91133-4.40659 7.64175-3.82067 8.36815-3.23072 9.3915-2.93775 10.7079-2.93775 11.7673-2.93775 12.8469-3.09025 13.9506-3.40328 15.0622-3.72434 16.202-4.19791 17.3698-4.83197L17.3698-0.963222C16.182-0.513737 14.994-0.176629 13.806 0.0481231 12.6181 0.280889 11.4302 0.401289 10.2422 0.401289 7.39281 0.401289 5.17744-0.321091 3.59618-1.76589 2.02304-3.21061 1.23636-5.23735 1.23636-7.85001 1.23636-10.4185 2.01093-12.4331 3.56403-13.902 5.11313-15.3788 7.24415-16.1172 9.95318-16.1172 12.4253-16.1172 14.4038-15.3668 15.8927-13.8698 17.3776-12.3809 18.1241-10.3944 18.1241-7.91412ZM12.9552-9.58362C12.9552-10.5348 12.6743-11.3013 12.1205-11.8792 11.5626-12.4652 10.8362-12.7622 9.93725-12.7622 8.96203-12.7622 8.17137-12.4893 7.56141-11.9434 6.95144-11.3976 6.57014-10.611 6.42162-9.58362Z" transform="matrix(1.00153 0 0 1 376.505 780.388)"/><path d="M9.47133-7.07935C8.4199-7.07935 7.62921-6.90276 7.09548-6.54961 6.56975-6.19644 6.30889-5.6707 6.30889-4.97647 6.30889-4.33434 6.52159-3.82866 6.95101-3.46743 7.37641-3.11426 7.96636-2.93769 8.71689-2.93769 9.66803-2.93769 10.4666-3.27479 11.1088-3.94903 11.7589-4.63128 12.088-5.48211 12.088-6.50149L12.088-7.07939ZM17.1447-8.97366 17.1447 0 12.088 0 12.088-2.32766C11.4138-1.3725 10.6513-0.678182 9.80842-0.240821 8.96162 0.184581 7.93425 0.4013 6.72624 0.4013 5.0969 0.4013 3.77649-0.0682497 2.76112-1.01137 1.74175-1.96251 1.23606-3.19858 1.23606-4.71964 1.23606-6.55775 1.86614-7.9062 3.13036-8.765 4.40258-9.63186 6.39716-10.0653 9.11811-10.0653L12.0879-10.0653 12.0879-10.4666C12.0879-11.2572 11.7709-11.8351 11.1408-12.2003 10.5067-12.5735 9.52745-12.7622 8.20303-12.7622 7.11944-12.7622 6.11619-12.6538 5.18507-12.4411 4.26202-12.2244 3.40716-11.9033 2.61658-11.4779L2.61658-15.3146C3.68415-15.5715 4.75962-15.7681 5.84321-15.9086 6.93482-16.045 8.02642-16.1173 9.11803-16.1173 11.9514-16.1173 13.9981-15.5554 15.2503-14.4317 16.5105-13.3161 17.1446-11.498 17.1446-8.9737Z" transform="matrix(1.00153 0 0 1 396.043 780.388)"/><path d="M7.91411-20.1944 7.91411-15.7316 13.0993-15.7316 13.0993-12.1358 7.91411-12.1358 7.91411-5.45772C7.91411-4.7273 8.05858-4.23769 8.34755-3.98084 8.63651-3.72399 9.20639-3.59557 10.0652-3.59557L12.6498-3.59557 12.6498 0.000308218 8.34755 0.000308218C6.35697 0.000308218 4.94431-0.409046 4.10955-1.23575 3.28282-2.0705 2.87349-3.47516 2.87349-5.45772L2.87349-12.1358 0.385252-12.1358 0.385252-15.7316 2.87349-15.7316 2.87349-20.1944Z" transform="matrix(1.00153 0 0 1 415.489 780.388)"/><path d="M2.42403-15.7314 7.4486-15.7314 7.4486 0 2.42403 0ZM2.42403-21.8637 7.4486-21.8637 7.4486-17.7542 2.42403-17.7542Z" transform="matrix(1.00153 0 0 1 429.259 780.388)"/><path d="M0.433437-15.7314 5.458-15.7314 9.39097-4.86368 13.2919-15.7314 18.3325-15.7314 12.1361 0 6.61382 0Z" transform="matrix(1.00153 0 0 1 439.135 780.388)"/><path d="M18.1242-7.91411 18.1242-6.46939 6.35751-6.46939C6.48593-5.28953 6.91133-4.40659 7.64175-3.82067 8.36815-3.23072 9.3915-2.93775 10.7079-2.93775 11.7673-2.93775 12.8469-3.09025 13.9506-3.40328 15.0622-3.72434 16.202-4.19791 17.3698-4.83197L17.3698-0.963222C16.182-0.513737 14.994-0.176629 13.806 0.0481231 12.6181 0.280889 11.4302 0.401289 10.2422 0.401289 7.39281 0.401289 5.17744-0.321091 3.59618-1.76589 2.02304-3.21061 1.23636-5.23735 1.23636-7.85001 1.23636-10.4185 2.01093-12.4331 3.56403-13.902 5.11313-15.3788 7.24415-16.1172 9.95318-16.1172 12.4253-16.1172 14.4038-15.3668 15.8927-13.8698 17.3776-12.3809 18.1241-10.3944 18.1241-7.91412ZM12.9552-9.58362C12.9552-10.5348 12.6743-11.3013 12.1205-11.8792 11.5626-12.4652 10.8362-12.7622 9.93725-12.7622 8.96203-12.7622 8.17137-12.4893 7.56141-11.9434 6.95144-11.3976 6.57014-10.611 6.42162-9.58362Z" transform="matrix(1.00153 0 0 1 457.918 780.388)"/><path d="M2.64872-20.965 9.51941-20.965 14.3032-9.74379 19.103-20.965 25.9737-20.965 25.9737 0 20.8528 0 20.8528-15.3472 16.0209-4.02943 12.6016-4.02943 7.76966-15.3472 7.76966 0 2.64872 0Z" transform="matrix(1.00153 0 0 1 487.484 780.388)"/><path d="M9.47133-7.07935C8.4199-7.07935 7.62921-6.90276 7.09548-6.54961 6.56975-6.19644 6.30889-5.6707 6.30889-4.97647 6.30889-4.33434 6.52159-3.82866 6.95101-3.46743 7.37641-3.11426 7.96636-2.93769 8.71689-2.93769 9.66803-2.93769 10.4666-3.27479 11.1088-3.94903 11.7589-4.63128 12.088-5.48211 12.088-6.50149L12.088-7.07939ZM17.1447-8.97366 17.1447 0 12.088 0 12.088-2.32766C11.4138-1.3725 10.6513-0.678182 9.80842-0.240821 8.96162 0.184581 7.93425 0.4013 6.72624 0.4013 5.0969 0.4013 3.77649-0.0682497 2.76112-1.01137 1.74175-1.96251 1.23606-3.19858 1.23606-4.71964 1.23606-6.55775 1.86614-7.9062 3.13036-8.765 4.40258-9.63186 6.39716-10.0653 9.11811-10.0653L12.0879-10.0653 12.0879-10.4666C12.0879-11.2572 11.7709-11.8351 11.1408-12.2003 10.5067-12.5735 9.52745-12.7622 8.20303-12.7622 7.11944-12.7622 6.11619-12.6538 5.18507-12.4411 4.26202-12.2244 3.40716-11.9033 2.61658-11.4779L2.61658-15.3146C3.68415-15.5715 4.75962-15.7681 5.84321-15.9086 6.93482-16.045 8.02642-16.1173 9.11803-16.1173 11.9514-16.1173 13.9981-15.5554 15.2503-14.4317 16.5105-13.3161 17.1446-11.498 17.1446-8.9737Z" transform="matrix(1.00153 0 0 1 516.159 780.388)"/><path d="M18.2362-9.58362 18.2362 0 13.1795 0 13.1795-7.3362C13.1795-8.69267 13.1474-9.63181 13.0832-10.1455 13.019-10.6592 12.9106-11.0364 12.7621-11.2853 12.5695-11.6064 12.3006-11.8552 11.9595-12.0398 11.6264-12.2204 11.2451-12.3127 10.8197-12.3127 9.76825-12.3127 8.94551-11.9033 8.34757-11.0927 7.74558-10.29 7.4486-9.1703 7.4486-7.7376L7.4486-0.000102739 2.42403-0.000102739 2.42403-15.7315 7.4486-15.7315 7.4486-13.4359C8.2071-14.3429 9.00972-15.0172 9.8566-15.4587 10.7114-15.8961 11.6545-16.1168 12.6819-16.1168 14.4999-16.1168 15.8805-15.555 16.8236-14.4313 17.7627-13.3156 18.2362-11.7023 18.2362-9.58323Z" transform="matrix(1.00153 0 0 1 535.596 780.388)"/><path d="M2.42403-15.7314 7.4486-15.7314 7.4486 0 2.42403 0ZM2.42403-21.8637 7.4486-21.8637 7.4486-17.7542 2.42403-17.7542Z" transform="matrix(1.00153 0 0 1 556.111 780.388)"/><path d="M9.47133-7.07935C8.4199-7.07935 7.62921-6.90276 7.09548-6.54961 6.56975-6.19644 6.30889-5.6707 6.30889-4.97647 6.30889-4.33434 6.52159-3.82866 6.95101-3.46743 7.37641-3.11426 7.96636-2.93769 8.71689-2.93769 9.66803-2.93769 10.4666-3.27479 11.1088-3.94903 11.7589-4.63128 12.088-5.48211 12.088-6.50149L12.088-7.07939ZM17.1447-8.97366 17.1447 0 12.088 0 12.088-2.32766C11.4138-1.3725 10.6513-0.678182 9.80842-0.240821 8.96162 0.184581 7.93425 0.4013 6.72624 0.4013 5.0969 0.4013 3.77649-0.0682497 2.76112-1.01137 1.74175-1.96251 1.23606-3.19858 1.23606-4.71964 1.23606-6.55775 1.86614-7.9062 3.13036-8.765 4.40258-9.63186 6.39716-10.0653 9.11811-10.0653L12.0879-10.0653 12.0879-10.4666C12.0879-11.2572 11.7709-11.8351 11.1408-12.2003 10.5067-12.5735 9.52745-12.7622 8.20303-12.7622 7.11944-12.7622 6.11619-12.6538 5.18507-12.4411 4.26202-12.2244 3.40716-11.9033 2.61658-11.4779L2.61658-15.3146C3.68415-15.5715 4.75962-15.7681 5.84321-15.9086 6.93482-16.045 8.02642-16.1173 9.11803-16.1173 11.9514-16.1173 13.9981-15.5554 15.2503-14.4317 16.5105-13.3161 17.1446-11.498 17.1446-8.9737Z" transform="matrix(1.00153 0 0 1 565.983 780.388)"/><path d="M12.7623-21.8639 12.7623-18.557 9.98513-18.557C9.2788-18.557 8.78113-18.4286 8.49222-18.1717 8.21129-17.9149 8.07485-17.4654 8.07485-16.8232L8.07485-15.7316 12.3771-15.7316 12.3771-12.1358 8.07485-12.1358 8.07485-0.000205479 3.05028-0.000205479 3.05028-12.1358 0.546008-12.1358 0.546008-15.7316 3.05028-15.7316 3.05028-16.8232C3.05028-18.5329 3.52384-19.801 4.47897-20.6278 5.43011-21.4505 6.91102-21.8638 8.92563-21.8638Z" transform="matrix(1.00153 0 0 1 153.417 809.155)"/><path d="M14.1102-11.4462C13.6607-11.6468 13.2153-11.7993 12.7778-11.8957 12.3484-12 11.9149-12.0562 11.4775-12.0562 10.1813-12.0562 9.18592-11.6388 8.49171-10.804 7.7934-9.97728 7.44829-8.79741 7.44829-7.25632L7.44829-0.000359587 2.42372-0.000359587 2.42372-15.7318 7.44829-15.7318 7.44829-13.1473C8.09041-14.1747 8.8289-14.9212 9.66355-15.3947 10.5063-15.8763 11.5137-16.1171 12.6815-16.1171 12.8501-16.1171 13.0347-16.1051 13.2273-16.085 13.428-16.0729 13.7169-16.0449 14.0942-16.0047Z" transform="matrix(1.00153 0 0 1 165.954 809.155)"/><path d="M9.90468-12.5219C8.78904-12.5219 7.93815-12.1205 7.35223-11.3179 6.76228-10.5152 6.46931-9.35945 6.46931-7.85041 6.46931-6.34138 6.76228-5.18556 7.35223-4.38296 7.93816-3.58833 8.78893-3.19509 9.90468-3.19509 10.9963-3.19509 11.831-3.58839 12.409-4.38296 12.9949-5.18561 13.2919-6.34138 13.2919-7.85041 13.2919-9.35945 12.9949-10.5153 12.409-11.3179 11.831-12.1205 10.9963-12.5219 9.90468-12.5219ZM9.90468-16.1177C12.6096-16.1177 14.7246-15.3833 16.2456-13.9185 17.7627-12.4617 18.5252-10.439 18.5252-7.85051 18.5252-5.27001 17.7627-3.24728 16.2456-1.78253 14.7246-0.325684 12.6096 0.400683 9.90468 0.400683 7.18374 0.400683 5.06073-0.325714 3.53166-1.78253 1.99859-3.24738 1.23606-5.27001 1.23606-7.85051 1.23606-10.439 1.99858-12.4618 3.53166-13.9185 5.06073-15.3834 7.18374-16.1177 9.90468-16.1177Z" transform="matrix(1.00153 0 0 1 180.162 809.155)"/><path d="M17.0003-13.1157C17.6304-14.0869 18.3849-14.8334 19.2637-15.3471 20.1386-15.8608 21.1018-16.1176 22.1533-16.1176 23.9592-16.1176 25.3358-15.5558 26.2789-14.4321 27.23-13.3165 27.7076-11.7031 27.7076-9.58403L27.7076-0.000410957 22.6508-0.000410957 22.6508-8.20353 22.6508-8.57275C22.6589-8.7092 22.6669-8.90183 22.6669-9.15066 22.6669-10.2623 22.4983-11.065 22.1692-11.5587 21.8482-12.0603 21.3224-12.3132 20.5961-12.3132 19.6409-12.3132 18.9025-11.9158 18.3808-11.1253 17.8551-10.3427 17.5862-9.20694 17.5782-7.72205L17.5782-0.00057534 12.5214-0.00057534 12.5214-8.20369C12.5214-9.94543 12.3689-11.0652 12.072-11.5587 11.771-12.0604 11.2372-12.3132 10.4667-12.3132 9.50348-12.3132 8.75698-11.9159 8.23527-11.1254 7.70953-10.3428 7.44868-9.21504 7.44868-7.73816L7.44868-0.000657531 2.39195-0.000657531 2.39195-15.7321 7.44868-15.7321 7.44868-13.4365C8.06671-14.3234 8.77309-14.9936 9.56767-15.4431 10.3703-15.8926 11.2532-16.1173 12.2164-16.1173 13.308-16.1173 14.2712-15.8524 15.1059-15.3307 15.9407-14.805 16.5708-14.0665 17.0002-13.1155Z" transform="matrix(1.00153 0 0 1 199.954 809.155)"/><path d="M7.91411-20.1944 7.91411-15.7316 13.0993-15.7316 13.0993-12.1358 7.91411-12.1358 7.91411-5.45772C7.91411-4.7273 8.05858-4.23769 8.34755-3.98084 8.63651-3.72399 9.20639-3.59557 10.0652-3.59557L12.6498-3.59557 12.6498 0.000308218 8.34755 0.000308218C6.35697 0.000308218 4.94431-0.409046 4.10955-1.23575 3.28282-2.0705 2.87349-3.47516 2.87349-5.45772L2.87349-12.1358 0.385252-12.1358 0.385252-15.7316 2.87349-15.7316 2.87349-20.1944Z" transform="matrix(1.00153 0 0 1 240.007 809.155)"/><path d="M18.2362-9.58362 18.2362 0 13.1795 0 13.1795-7.30415C13.1795-8.68476 13.1474-9.63181 13.0832-10.1455 13.019-10.6592 12.9106-11.0364 12.7621-11.2853 12.5695-11.6064 12.3006-11.8552 11.9595-12.0398 11.6264-12.2204 11.2451-12.3127 10.8197-12.3127 9.76825-12.3127 8.94551-11.9033 8.34757-11.0927 7.74558-10.29 7.4486-9.1703 7.4486-7.7376L7.4486-0.000102739 2.42403-0.000102739 2.42403-21.864 7.4486-21.864 7.4486-13.4362C8.2071-14.3432 9.00972-15.0175 9.8566-15.459 10.7114-15.8964 11.6545-16.1171 12.6819-16.1171 14.4999-16.1171 15.8805-15.5553 16.8236-14.4316 17.7627-13.316 18.2362-11.7026 18.2362-9.58354Z" transform="matrix(1.00153 0 0 1 253.777 809.155)"/><path d="M18.1242-7.91411 18.1242-6.46939 6.35751-6.46939C6.48593-5.28953 6.91133-4.40659 7.64175-3.82067 8.36815-3.23072 9.3915-2.93775 10.7079-2.93775 11.7673-2.93775 12.8469-3.09025 13.9506-3.40328 15.0622-3.72434 16.202-4.19791 17.3698-4.83197L17.3698-0.963222C16.182-0.513737 14.994-0.176629 13.806 0.0481231 12.6181 0.280889 11.4302 0.401289 10.2422 0.401289 7.39281 0.401289 5.17744-0.321091 3.59618-1.76589 2.02304-3.21061 1.23636-5.23735 1.23636-7.85001 1.23636-10.4185 2.01093-12.4331 3.56403-13.902 5.11313-15.3788 7.24415-16.1172 9.95318-16.1172 12.4253-16.1172 14.4038-15.3668 15.8927-13.8698 17.3776-12.3809 18.1241-10.3944 18.1241-7.91412ZM12.9552-9.58362C12.9552-10.5348 12.6743-11.3013 12.1205-11.8792 11.5626-12.4652 10.8362-12.7622 9.93725-12.7622 8.96203-12.7622 8.17137-12.4893 7.56141-11.9434 6.95144-11.3976 6.57014-10.611 6.42162-9.58362Z" transform="matrix(1.00153 0 0 1 274.288 809.155)"/><path d="M2.64872-20.965 8.68466-20.965 16.3099-6.58148 16.3099-20.965 21.4308-20.965 21.4308 0 15.3949 0 7.76966-14.3835 7.76966 0 2.64872 0Z" transform="matrix(1.00153 0 0 1 303.859 809.155)"/><path d="M9.90468-12.5219C8.78904-12.5219 7.93815-12.1205 7.35223-11.3179 6.76228-10.5152 6.46931-9.35945 6.46931-7.85041 6.46931-6.34138 6.76228-5.18556 7.35223-4.38296 7.93816-3.58833 8.78893-3.19509 9.90468-3.19509 10.9963-3.19509 11.831-3.58839 12.409-4.38296 12.9949-5.18561 13.2919-6.34138 13.2919-7.85041 13.2919-9.35945 12.9949-10.5153 12.409-11.3179 11.831-12.1205 10.9963-12.5219 9.90468-12.5219ZM9.90468-16.1177C12.6096-16.1177 14.7246-15.3833 16.2456-13.9185 17.7627-12.4617 18.5252-10.439 18.5252-7.85051 18.5252-5.27001 17.7627-3.24728 16.2456-1.78253 14.7246-0.325684 12.6096 0.400683 9.90468 0.400683 7.18374 0.400683 5.06073-0.325714 3.53166-1.78253 1.99859-3.24738 1.23606-5.27001 1.23606-7.85051 1.23606-10.439 1.99858-12.4618 3.53166-13.9185 5.06073-15.3834 7.18374-16.1177 9.90468-16.1177Z" transform="matrix(1.00153 0 0 1 327.971 809.155)"/><path d="M2.24742-6.1323 2.24742-15.7321 7.30415-15.7321 7.30415-14.1589C7.30415-13.3001 7.29612-12.2325 7.28809-10.9483 7.27605-9.66407 7.27204-8.80527 7.27204-8.37983 7.27204-7.1036 7.30415-6.1886 7.36836-5.63474 7.4406-5.07689 7.55297-4.67557 7.70547-4.43073 7.91817-4.09763 8.19107-3.84078 8.52418-3.66019 8.85326-3.48762 9.23453-3.40334 9.66397-3.40334 10.7114-3.40334 11.5341-3.80466 12.1361-4.60734 12.7341-5.40999 13.035-6.52569 13.035-7.9624L13.035-15.7321 18.0596-15.7321 18.0596-0.000616436 13.035-0.000616436 13.035-2.2802C12.2725-1.35714 11.4699-0.678901 10.627-0.241437 9.78025 0.183965 8.84513 0.400683 7.81774 0.400683 6.00778 0.400683 4.62717-0.153143 3.67611-1.26883 2.72096-2.38047 2.24742-4.0019 2.24742-6.13292Z" transform="matrix(1.00153 0 0 1 347.767 809.155)"/><path d="M18.2362-9.58362 18.2362 0 13.1795 0 13.1795-7.3362C13.1795-8.69267 13.1474-9.63181 13.0832-10.1455 13.019-10.6592 12.9106-11.0364 12.7621-11.2853 12.5695-11.6064 12.3006-11.8552 11.9595-12.0398 11.6264-12.2204 11.2451-12.3127 10.8197-12.3127 9.76825-12.3127 8.94551-11.9033 8.34757-11.0927 7.74558-10.29 7.4486-9.1703 7.4486-7.7376L7.4486-0.000102739 2.42403-0.000102739 2.42403-15.7315 7.4486-15.7315 7.4486-13.4359C8.2071-14.3429 9.00972-15.0172 9.8566-15.4587 10.7114-15.8961 11.6545-16.1168 12.6819-16.1168 14.4999-16.1168 15.8805-15.555 16.8236-14.4313 17.7627-13.3156 18.2362-11.7023 18.2362-9.58323Z" transform="matrix(1.00153 0 0 1 368.277 809.155)"/><path d="M2.64872-20.965 11.6224-20.965C14.2872-20.965 16.3299-20.371 17.7547-19.1831 19.1874-18.0032 19.9058-16.3176 19.9058-14.1263 19.9058-11.9311 19.1875-10.2416 17.7547-9.05359 16.33-7.86572 14.2872-7.27168 11.6224-7.27168L8.04253-7.27168 8.04253 0.000308218 2.64872 0.000308218ZM8.04253-17.048 8.04253-11.1887 11.0445-11.1887C12.0919-11.1887 12.8986-11.4456 13.4685-11.9593 14.0464-12.473 14.3354-13.1953 14.3354-14.1264 14.3354-15.0655 14.0464-15.7879 13.4685-16.2936 12.8986-16.7953 12.092-17.0481 11.0445-17.0481Z" transform="matrix(1.00153 0 0 1 398.817 809.155)"/><path d="M14.1102-11.4462C13.6607-11.6468 13.2153-11.7993 12.7778-11.8957 12.3484-12 11.9149-12.0562 11.4775-12.0562 10.1813-12.0562 9.18592-11.6388 8.49171-10.804 7.7934-9.97728 7.44829-8.79741 7.44829-7.25632L7.44829-0.000359587 2.42372-0.000359587 2.42372-15.7318 7.44829-15.7318 7.44829-13.1473C8.09041-14.1747 8.8289-14.9212 9.66355-15.3947 10.5063-15.8763 11.5137-16.1171 12.6815-16.1171 12.8501-16.1171 13.0347-16.1051 13.2273-16.085 13.428-16.0729 13.7169-16.0449 14.0942-16.0047Z" transform="matrix(1.00153 0 0 1 419.935 809.155)"/><path d="M9.90468-12.5219C8.78904-12.5219 7.93815-12.1205 7.35223-11.3179 6.76228-10.5152 6.46931-9.35945 6.46931-7.85041 6.46931-6.34138 6.76228-5.18556 7.35223-4.38296 7.93816-3.58833 8.78893-3.19509 9.90468-3.19509 10.9963-3.19509 11.831-3.58839 12.409-4.38296 12.9949-5.18561 13.2919-6.34138 13.2919-7.85041 13.2919-9.35945 12.9949-10.5153 12.409-11.3179 11.831-12.1205 10.9963-12.5219 9.90468-12.5219ZM9.90468-16.1177C12.6096-16.1177 14.7246-15.3833 16.2456-13.9185 17.7627-12.4617 18.5252-10.439 18.5252-7.85051 18.5252-5.27001 17.7627-3.24728 16.2456-1.78253 14.7246-0.325684 12.6096 0.400683 9.90468 0.400683 7.18374 0.400683 5.06073-0.325714 3.53166-1.78253 1.99859-3.24738 1.23606-5.27001 1.23606-7.85051 1.23606-10.439 1.99858-12.4618 3.53166-13.9185 5.06073-15.3834 7.18374-16.1177 9.90468-16.1177Z" transform="matrix(1.00153 0 0 1 434.139 809.155)"/><path d="M2.42403-15.7314 7.4486-15.7314 7.4486-0.288697C7.4486 1.81828 6.93892 3.42759 5.92354 4.54323 4.91621 5.65487 3.45142 6.21275 1.52506 6.21275L-0.963181 6.21275-0.963181 2.90578-0.0802599 2.90578C0.87088 2.90578 1.52504 2.68906 1.87816 2.26365 2.23935 1.83424 2.42396 0.98342 2.42396-0.2888ZM2.42403-21.8637 7.4486-21.8637 7.4486-17.7542 2.42403-17.7542Z" transform="matrix(1.00153 0 0 1 453.934 809.155)"/><path d="M18.1242-7.91411 18.1242-6.46939 6.35751-6.46939C6.48593-5.28953 6.91133-4.40659 7.64175-3.82067 8.36815-3.23072 9.3915-2.93775 10.7079-2.93775 11.7673-2.93775 12.8469-3.09025 13.9506-3.40328 15.0622-3.72434 16.202-4.19791 17.3698-4.83197L17.3698-0.963222C16.182-0.513737 14.994-0.176629 13.806 0.0481231 12.6181 0.280889 11.4302 0.401289 10.2422 0.401289 7.39281 0.401289 5.17744-0.321091 3.59618-1.76589 2.02304-3.21061 1.23636-5.23735 1.23636-7.85001 1.23636-10.4185 2.01093-12.4331 3.56403-13.902 5.11313-15.3788 7.24415-16.1172 9.95318-16.1172 12.4253-16.1172 14.4038-15.3668 15.8927-13.8698 17.3776-12.3809 18.1241-10.3944 18.1241-7.91412ZM12.9552-9.58362C12.9552-10.5348 12.6743-11.3013 12.1205-11.8792 11.5626-12.4652 10.8362-12.7622 9.93725-12.7622 8.96203-12.7622 8.17137-12.4893 7.56141-11.9434 6.95144-11.3976 6.57014-10.611 6.42162-9.58362Z" transform="matrix(1.00153 0 0 1 463.81 809.155)"/><path d="M15.1222-15.2342 15.1222-11.1406C14.448-11.6102 13.7617-11.9593 13.0674-12.1841 12.3811-12.4088 11.6708-12.5212 10.9324-12.5212 9.52773-12.5212 8.43212-12.1078 7.64154-11.2851 6.85896-10.4704 6.4697-9.32669 6.4697-7.84971 6.4697-6.38085 6.85899-5.23705 7.64154-4.41432 8.43215-3.59962 9.52773-3.19429 10.9324-3.19429 11.711-3.19429 12.4574-3.30666 13.1638-3.5314 13.8701-3.76416 14.5202-4.11332 15.1222-4.57482L15.1222-0.465245C14.3396-0.17629 13.5409 0.0364108 12.7303 0.176876 11.9277 0.325365 11.113 0.401618 10.2903 0.401618 7.45291 0.401618 5.23354-0.324779 3.62824-1.78159 2.03095-3.23443 1.23636-5.25706 1.23636-7.84958 1.23636-10.4501 2.03099-12.4769 3.62824-13.9337 5.23354-15.3865 7.45291-16.1169 10.2903-16.1169 11.113-16.1169 11.9277-16.0407 12.7303-15.8922 13.533-15.7517 14.3276-15.531 15.1222-15.234Z" transform="matrix(1.00153 0 0 1 483.352 809.155)"/><path d="M7.91411-20.1944 7.91411-15.7316 13.0993-15.7316 13.0993-12.1358 7.91411-12.1358 7.91411-5.45772C7.91411-4.7273 8.05858-4.23769 8.34755-3.98084 8.63651-3.72399 9.20639-3.59557 10.0652-3.59557L12.6498-3.59557 12.6498 0.000308218 8.34755 0.000308218C6.35697 0.000308218 4.94431-0.409046 4.10955-1.23575 3.28282-2.0705 2.87349-3.47516 2.87349-5.45772L2.87349-12.1358 0.385252-12.1358 0.385252-15.7316 2.87349-15.7316 2.87349-20.1944Z" transform="matrix(1.00153 0 0 1 500.427 809.155)"/></g></g><g clip-path="url(#clip3)"><g clip-path="url(#clip4)"><g clip-path="url(#clip5)"><path d="M115.443 161.305C88.0391 161.305 65.7462 129.498 65.7462 90.4051 65.7462 51.3119 88.0381 19.5049 115.443 19.5049 142.848 19.5049 165.14 51.3119 165.14 90.4051 165.142 129.497 142.846 161.305 115.443 161.305ZM115.443 26.6078C91.9586 26.6078 72.849 55.2267 72.849 90.4051 72.849 125.583 91.9579 154.202 115.443 154.202 138.932 154.202 158.041 125.583 158.041 90.4051 158.041 55.2267 138.932 26.6078 115.443 26.6078Z" transform="matrix(0.585447 0.810733 -0.810718 0.585437 681.752 248.756)"/><path d="M115.443 44.3287C100.763 44.3287 88.8196 28.4247 88.8196 8.87366L95.9222 8.87366C95.9222 24.5072 104.679 37.2258 115.443 37.2258 126.208 37.2258 134.968 24.5072 134.968 8.87366L142.071 8.87366C142.071 28.4244 130.126 44.3287 115.443 44.3287Z" transform="matrix(0.585447 0.810733 -0.810718 0.585437 681.752 248.756)"/><path d="M77.8316 47.8604 153.061 47.8604 153.061 54.9629 77.8316 54.9629Z" transform="matrix(0.585447 0.810733 -0.810718 0.585437 681.752 248.756)"/><path d="M111.892 51.4118 118.994 51.4118 118.994 157.751 111.892 157.751Z" transform="matrix(0.585447 0.810733 -0.810718 0.585437 681.752 248.756)"/><path d="M140.689 87.9155C134.818 87.9155 130.039 83.1416 130.039 77.2743 130.039 71.4084 134.818 66.6345 140.689 66.6345 146.56 66.6345 151.339 71.4084 151.339 77.2743 151.339 83.1416 146.56 87.9155 140.689 87.9155ZM140.689 73.7374C138.734 73.7374 137.142 75.3243 137.142 77.2747 137.142 79.225 138.734 80.8129 140.689 80.8129 142.644 80.8129 144.237 79.2247 144.237 77.2747 144.237 75.3246 142.645 73.7374 140.689 73.7374Z" transform="matrix(0.585447 0.810733 -0.810718 0.585437 681.752 248.756)"/><path d="M137.138 125.86C131.266 125.86 126.488 121.086 126.488 115.219 126.488 109.353 131.266 104.579 137.138 104.579 143.009 104.579 147.788 109.353 147.788 115.219 147.788 121.086 143.009 125.86 137.138 125.86ZM137.138 111.681C135.182 111.681 133.59 113.268 133.59 115.218 133.59 117.168 135.182 118.756 137.138 118.756 139.093 118.756 140.685 117.168 140.685 115.218 140.685 113.268 139.093 111.681 137.138 111.681Z" transform="matrix(0.585447 0.810733 -0.810718 0.585437 681.752 248.756)"/><path d="M90.9921 87.9155C85.1208 87.9155 80.342 83.1416 80.342 77.2743 80.342 71.4084 85.1208 66.6345 90.9921 66.6345 96.8633 66.6345 101.642 71.4084 101.642 77.2743 101.642 83.1416 96.8633 87.9155 90.9921 87.9155ZM90.9921 73.7374C89.0367 73.7374 87.4446 75.3243 87.4446 77.2747 87.4446 79.225 89.0367 80.8129 90.9921 80.8129 92.9474 80.8129 94.5395 79.2247 94.5395 77.2747 94.5395 75.3246 92.9475 73.7374 90.9921 73.7374Z" transform="matrix(0.585447 0.810733 -0.810718 0.585437 681.752 248.756)"/><path d="M94.5402 125.86C88.6689 125.86 83.8902 121.086 83.8902 115.219 83.8902 109.353 88.6689 104.579 94.5402 104.579 100.411 104.579 105.19 109.353 105.19 115.219 105.19 121.086 100.411 125.86 94.5402 125.86ZM94.5402 111.681C92.5849 111.681 90.9927 113.268 90.9927 115.218 90.9927 117.168 92.5848 118.756 94.5402 118.756 96.4955 118.756 98.0877 117.168 98.0877 115.218 98.0877 113.268 96.4956 111.681 94.5402 111.681Z" transform="matrix(0.585447 0.810733 -0.810718 0.585437 681.752 248.756)"/><path d="M153.391 49.9477 148.494 44.8042 159.824 34.015 163.652 33.058C169.513 31.5947 174.115 27.2913 175.96 21.5463L182.722 23.7206C180.118 31.819 173.632 37.8858 165.371 39.9494L163.359 40.4518Z" transform="matrix(0.585447 0.810733 -0.810718 0.585437 681.752 248.756)"/><path d="M77.5019 49.9477 67.5282 40.4518 65.52 39.9495C57.2594 37.8859 50.7738 31.8191 48.1694 23.7207L54.932 21.5463C56.7766 27.2913 61.379 31.5949 67.2397 33.058L71.0717 34.0151 82.3981 44.8042Z" transform="matrix(0.585447 0.810733 -0.810718 0.585437 681.752 248.756)"/><path d="M186.479 112.215C183.417 92.3177 162.168 90.4707 161.267 90.4011L161.779 83.318C171.372 84.0007 190.352 90.6923 193.498 111.133Z" transform="matrix(0.585447 0.810733 -0.810718 0.585437 681.752 248.756)"/><path d="M44.3485 112.215 37.3297 111.133C40.4791 90.6936 59.4555 84.0019 69.048 83.3176L69.5542 90.4021 69.3005 86.8599 69.5607 90.4007C68.659 90.4703 47.4144 92.3174 44.3487 112.215Z" transform="matrix(0.585447 0.810733 -0.810718 0.585437 681.752 248.756)"/><path d="M156.445 175.788C155.061 175.788 153.539 175.427 152.155 174.452 148.965 172.207 147.626 167.701 148.067 160.682 148.774 149.365 143.93 146.431 143.725 146.311L146.985 140.005C147.928 140.475 156.161 145.063 155.155 161.126 154.756 167.519 156.231 168.634 156.244 168.644 156.33 168.705 156.635 168.669 156.639 168.67L159.449 175.193C158.64 175.542 157.589 175.788 156.445 175.788Z" transform="matrix(0.585447 0.810733 -0.810718 0.585437 681.752 248.756)"/><path d="M74.4483 175.788C73.3045 175.788 72.2534 175.542 71.4445 175.196L74.2538 168.673C74.192 168.642 74.3543 168.683 74.4625 168.683 74.5385 168.683 74.6145 168.674 74.6596 168.639 74.6738 168.628 76.1332 167.436 75.7377 161.127 74.7317 145.063 82.9652 140.475 83.908 140.006L87.078 146.359 85.4936 143.183 87.1682 146.313C86.9634 146.433 82.119 149.367 82.826 160.684 83.2665 167.703 81.9282 172.209 78.7377 174.454 77.3556 175.428 75.833 175.788 74.4483 175.788Z" transform="matrix(0.585447 0.810733 -0.810718 0.585437 681.752 248.756)"/><path d="M11.8968-0.711014C11.2811-0.391565 10.6409-0.150697 9.975 0.0103213 9.31163 0.171333 8.61991 0.252485 7.89857 0.252485 5.741 0.252485 4.03156-0.350336 2.7719-1.55601 1.51472-2.76166 0.886112-4.39627 0.886112-6.46109 0.886112-8.52848 1.51469-10.1655 2.7719-11.3714 4.03166-12.5771 5.74097-13.1799 7.89857-13.1799 8.61991-13.1799 9.31163-13.0975 9.975-12.9326 10.6409-12.7703 11.2811-12.532 11.8968-12.2164L11.8968-9.53719C11.2785-9.95967 10.668-10.2688 10.0677-10.4646 9.46619-10.6604 8.83244-10.7583 8.1665-10.7583 6.97372-10.7583 6.036-10.377 5.35331-9.61446 4.67319-8.8519 4.33312-7.80082 4.33312-6.46119 4.33312-5.12415 4.67316-4.07563 5.35331-3.31308 6.036-2.55052 6.97375-2.16923 8.1665-2.16923 8.83244-2.16923 9.46619-2.26712 10.0677-2.46291 10.668-2.6587 11.2785-2.96783 11.8968-3.39034Z" transform="matrix(0.585447 0.810733 -0.810718 0.585437 502.372 406.763)"/><path d="M8.70251-7.06397C8.43072-7.1902 8.16152-7.28552 7.8936-7.34735 7.62567-7.40918 7.35518-7.4401 7.08468-7.4401 6.28348-7.4401 5.66905-7.18377 5.24011-6.6724 4.80988-6.15973 4.59607-5.42682 4.59607-4.47232L4.59607-0.000207744 1.48916-0.000207744 1.48916-9.71243 4.59607-9.71243 4.59607-8.11517C4.99408-8.75021 5.45138-9.2139 5.96659-9.50633 6.4844-9.79744 7.10526-9.94427 7.82659-9.94427 7.93221-9.94427 8.04557-9.93912 8.16663-9.92882 8.28642-9.92109 8.46289-9.90434 8.69734-9.87729Z" transform="matrix(0.585447 0.810733 -0.810718 0.585437 510.001 417.327)"/><path d="M11.1859-4.87936 11.1859-3.99829 3.92604-3.99829C4.00075-3.26924 4.26351-2.72307 4.71435-2.35981 5.16776-1.99527 5.79765-1.81367 6.60528-1.81367 7.25707-1.81367 7.92558-1.90899 8.60956-2.10221 9.2961-2.29413 10.0007-2.58784 10.722-2.98328L10.722-0.587422C9.99036-0.311768 9.25617-0.1044 8.52194 0.036009 7.78643 0.180276 7.05352 0.252409 6.32186 0.252409 4.56233 0.252409 3.19564-0.193285 2.22039-1.08721 1.24788-1.97985 0.762257-3.23318 0.762257-4.84838 0.762257-6.43145 1.23885-7.67703 2.19464-8.58382 3.15297-9.49064 4.46941-9.94405 6.1464-9.94405 7.67151-9.94405 8.89262-9.48292 9.80963-8.56321 10.7267-7.6461 11.1853-6.41724 11.1853-4.87921ZM7.9914-5.91498C7.9914-6.50233 7.81879-6.97639 7.47616-7.33704 7.13223-7.69772 6.684-7.87803 6.1314-7.87803 5.52986-7.87803 5.04037-7.70929 4.66297-7.37311 4.28814-7.03564 4.05497-6.55002 3.96225-5.91498Z" transform="matrix(0.585447 0.810733 -0.810718 0.585437 515.127 424.426)"/><path d="M5.84289-4.36923C5.19628-4.36923 4.70937-4.25845 4.37962-4.03947 4.05244-3.81921 3.89013-3.49591 3.89013-3.07083 3.89013-2.67539 4.02152-2.36624 4.28686-2.14339 4.55092-1.92313 4.91675-1.81364 5.38431-1.81364 5.9678-1.81364 6.45858-2.02231 6.85791-2.44222 7.25592-2.86084 7.45559-3.38511 7.45559-4.01369L7.45559-4.36919ZM10.5831-5.53883 10.5831 3.29753e-05 7.45559 3.29753e-05 7.45559-1.43749C7.03954-0.850136 6.57066-0.419908 6.04899-0.149411 5.52989 0.118513 4.89743 0.252492 4.15291 0.252492 3.14561 0.252492 2.32898-0.0411928 1.70037-0.628575 1.07437-1.21593 0.76262-1.97591 0.76262-2.91109 0.76262-4.05105 1.1542-4.88575 1.93737-5.41517 2.72053-5.94716 3.94939-6.2138 5.62664-6.2138L7.45575-6.2138 7.45575-6.46112C7.45575-6.95189 7.26125-7.31125 6.87354-7.53796 6.48839-7.76466 5.88556-7.878 5.06504-7.878 4.39782-7.878 3.77824-7.81102 3.20503-7.67705 2.6344-7.54567 2.10373-7.34859 1.61295-7.08452L1.61295-9.44948C2.27503-9.61049 2.94225-9.73286 3.61208-9.8153 4.28448-9.90032 4.95685-9.94411 5.62668-9.94411 7.37849-9.94411 8.6421-9.59889 9.41884-8.90849 10.1943-8.21805 10.5833-7.09485 10.5833-5.53874Z" transform="matrix(0.585447 0.810733 -0.810718 0.585437 522.177 434.189)"/><path d="M4.87936-12.4686 4.87936-9.71209 8.07898-9.71209 8.07898-7.4914 4.87936-7.4914 4.87936-3.37476C4.87936-2.92135 4.96823-2.61478 5.14728-2.45765 5.3289-2.29921 5.68442-2.22064 6.21383-2.22064L7.81109-2.22064 7.81109 4.9463e-05 5.14731 4.9463e-05C3.92363 4.9463e-05 3.05675-0.254995 2.54536-0.767649 2.0327-1.27903 1.77767-2.14849 1.77767-3.37474L1.77767-7.49138 0.231948-7.49138 0.231948-9.71207 1.77767-9.71207 1.77767-12.4686Z" transform="matrix(0.585447 0.810733 -0.810718 0.585437 529.192 443.904)"/><path d="M11.1859-4.87936 11.1859-3.99829 3.92604-3.99829C4.00075-3.26924 4.26351-2.72307 4.71435-2.35981 5.16776-1.99527 5.79765-1.81367 6.60528-1.81367 7.25707-1.81367 7.92558-1.90899 8.60956-2.10221 9.2961-2.29413 10.0007-2.58784 10.722-2.98328L10.722-0.587422C9.99036-0.311768 9.25617-0.1044 8.52194 0.036009 7.78643 0.180276 7.05352 0.252409 6.32186 0.252409 4.56233 0.252409 3.19564-0.193285 2.22039-1.08721 1.24788-1.97985 0.762257-3.23318 0.762257-4.84838 0.762257-6.43145 1.23885-7.67703 2.19464-8.58382 3.15297-9.49064 4.46941-9.94405 6.1464-9.94405 7.67151-9.94405 8.89262-9.48292 9.80963-8.56321 10.7267-7.6461 11.1853-6.41724 11.1853-4.87921ZM7.9914-5.91498C7.9914-6.50233 7.81879-6.97639 7.47616-7.33704 7.13223-7.69772 6.684-7.87803 6.1314-7.87803 5.52986-7.87803 5.04037-7.70929 4.66297-7.37311 4.28814-7.03564 4.05497-6.55002 3.96225-5.91498Z" transform="matrix(0.585447 0.810733 -0.810718 0.585437 534.162 450.785)"/><path d="M8.09939-8.29032 8.09939-13.4892 11.2166-13.4892 11.2166-0.000329753 8.09939-0.000329753 8.09939-1.40692C7.66917-0.832429 7.19772-0.412521 6.68248-0.144597 6.16981 0.119463 5.57599 0.252129 4.89977 0.252129 3.70056 0.252129 2.71644-0.223177 1.94746-1.17508 1.18104-2.12569 0.798464-3.35069 0.798464-4.84885 0.798464-6.34303 1.18104-7.56546 1.94746-8.51736 2.71644-9.46797 3.70056-9.94456 4.89977-9.94456 5.56956-9.94456 6.1621-9.80802 6.67733-9.53751 7.19515-9.26959 7.66917-8.85354 8.09939-8.29065ZM6.04873-2.00457C6.71466-2.00457 7.22347-2.24673 7.57383-2.73105 7.9242-3.21536 8.09939-3.92126 8.09939-4.84869 8.09939-5.77226 7.92421-6.47685 7.57383-6.96115 7.22345-7.44546 6.71466-7.68763 6.04873-7.68763 5.39179-7.68763 4.88945-7.44547 4.53908-6.96115 4.18872-6.47684 4.01352-5.77223 4.01352-4.84869 4.01352-3.92126 4.1887-3.21539 4.53908-2.73105 4.88946-2.24671 5.39179-2.00457 6.04873-2.00457Z" transform="matrix(0.585447 0.810733 -0.810718 0.585437 541.212 460.549)"/><path d="M6.65705-2.00427C7.32299-2.00427 7.82923-2.24644 8.17702-2.73075 8.52738-3.21509 8.70258-3.92096 8.70258-4.84839 8.70258-5.77197 8.5274-6.47655 8.17702-6.96086 7.82923-7.4452 7.32302-7.68734 6.65705-7.68734 5.99369-7.68734 5.4836-7.4426 5.1268-6.95568 4.77258-6.46748 4.5961-5.76547 4.5961-4.84836 4.5961-3.92736 4.77257-3.22278 5.1268-2.7359 5.4836-2.2477 5.99369-2.00424 6.65705-2.00424ZM4.5961-8.29003C5.02118-8.85291 5.49392-9.269 6.01301-9.53689 6.53468-9.80739 7.13365-9.94393 7.81119-9.94393 9.00655-9.94393 9.98809-9.46734 10.7584-8.51673 11.5273-7.56483 11.9125-6.3424 11.9125-4.84823 11.9125-3.35016 11.5273-2.12519 10.7584-1.17445 9.98809-0.22255 9.00655 0.252756 7.81119 0.252756 7.13365 0.252756 6.53468 0.118794 6.01301-0.149147 5.49392-0.419647 5.02118-0.839584 4.5961-1.40633L4.5961 0.000263802 1.4892 0.000263802 1.4892-13.4886 4.5961-13.4886Z" transform="matrix(0.585447 0.810733 -0.810718 0.585437 552.272 475.864)"/><path d="M0.2164-9.71222 3.31812-9.71222 5.93039-3.12243 8.15108-9.71222 11.2528-9.71222 7.17211 0.917043C6.75992 1.99903 6.28076 2.75387 5.73459 3.1841 5.18845 3.6169 4.46708 3.83331 3.57058 3.83331L1.77755 3.83331 1.77755 1.79297 2.7462 1.79297C3.27433 1.79297 3.65817 1.70795 3.89519 1.5405 4.13478 1.37562 4.32285 1.0768 4.45679 0.643968L4.54438 0.370893Z" transform="matrix(0.585447 0.810733 -0.810718 0.585437 559.713 486.17)"/><path d="M4.96674-10.4232 4.96674-2.52459 6.1621-2.52459C7.5249-2.52459 8.5657-2.86077 9.28446-3.53446 10.0058-4.21072 10.3664-5.19483 10.3664-6.48677 10.3664-7.76714 10.0071-8.74353 9.28961-9.41333 8.5747-10.0857 7.53265-10.4232 6.1621-10.4232ZM1.62799-12.9427 5.14712-12.9427C7.11535-12.9427 8.57984-12.801 9.54206-12.5202 10.503-12.242 11.3274-11.768 12.0152-11.0981 12.6232-10.5134 13.0727-9.84095 13.3652-9.0784 13.6601-8.31584 13.8083-7.45153 13.8083-6.48674 13.8083-5.50777 13.6601-4.63445 13.3652-3.86932 13.0728-3.10291 12.6232-2.42794 12.0152-1.84444 11.3209-1.17465 10.4875-0.698021 9.51631-0.417237 8.54766-0.139007 7.09081 9.89259e-05 5.14708 9.89259e-05L1.62796 9.89259e-05Z" transform="matrix(0.585447 0.810733 -0.810718 0.585437 570.108 500.564)"/><path d="M1.48903-9.71222 4.59593-9.71222 4.59593 0 1.48903 0ZM1.48903-13.4889 4.59593-13.4889 4.59593-10.959 1.48903-10.959Z" transform="matrix(0.585447 0.810733 -0.810718 0.585437 578.737 512.513)"/><path d="M11.2528-5.91511 11.2528 0 8.13046 0 8.13046-4.52388C8.13046-5.36116 8.11114-5.93823 8.07378-6.25509 8.03514-6.57453 7.97073-6.80897 7.87799-6.96096 7.75691-7.16319 7.59203-7.32164 7.38336-7.43498 7.17726-7.54833 6.94156-7.605 6.67749-7.605 6.02827-7.605 5.51821-7.35382 5.14724-6.85277 4.77884-6.35428 4.59592-5.66256 4.59592-4.77635L4.59592-0.000204447 1.48902-0.000204447 1.48902-9.71242 4.59592-9.71242 4.59592-8.29036C5.06223-8.85325 5.55943-9.26933 6.08496-9.53722 6.61052-9.80772 7.19016-9.94427 7.82645-9.94427 8.94965-9.94427 9.80111-9.59905 10.382-8.90865 10.9617-8.22082 11.2528-7.22381 11.2528-5.91512Z" transform="matrix(0.585447 0.810733 -0.810718 0.585437 582.3 517.448)"/><path d="M6.11065-7.72348C5.42282-7.72348 4.89983-7.47616 4.53918-6.98153 4.17853-6.4869 3.99819-5.77589 3.99819-4.84843 3.99819-3.91714 4.17853-3.2048 4.53918-2.71017 4.89984-2.21554 5.42282-1.96823 6.11065-1.96823 6.78691-1.96823 7.30344-2.21554 7.66152-2.71017 8.0222-3.2048 8.20251-3.91714 8.20251-4.84843 8.20251-5.77586 8.02217-6.4869 7.66152-6.98153 7.30344-7.47616 6.78691-7.72348 6.11065-7.72348ZM6.11065-9.94417C7.7826-9.94417 9.08872-9.49204 10.0265-8.58908 10.9642-7.68869 11.4331-6.44182 11.4331-4.84836 11.4331-3.2511 10.9642-2.00038 10.0265-1.09742 9.08872-0.197027 7.7826 0.252525 6.11065 0.252525 4.43356 0.252525 3.12355-0.197027 2.17934-1.09742 1.23387-2.00038 0.762422-3.2511 0.762422-4.84836 0.762422-6.44173 1.23387-7.68862 2.17934-8.58908 3.12352-9.49204 4.4335-9.94417 6.11065-9.94417Z" transform="matrix(0.585447 0.810733 -0.810718 0.585437 589.701 527.696)"/><path d="M9.07843-9.40819 9.07843-7.04841C8.41121-7.32663 7.76971-7.53403 7.15142-7.67184 6.53313-7.80837 5.94835-7.87793 5.39961-7.87793 4.81225-7.87793 4.37427-7.80322 4.08574-7.65638 3.79978-7.51211 3.65808-7.28669 3.65808-6.98141 3.65808-6.73023 3.76628-6.53828 3.98269-6.40434 4.19909-6.27295 4.58679-6.17506 5.14711-6.11065L5.69325-6.03337C7.28275-5.82985 8.35317-5.49752 8.90319-5.03382 9.45194-4.57269 9.72758-3.84875 9.72758-2.85949 9.72758-1.82516 9.34632-1.04714 8.58373-0.525468 7.82118-0.00637083 6.68251 0.252551 5.16782 0.252551 4.52506 0.252551 3.86041 0.201027 3.17383 0.0979795 2.48986-0.0012036 1.78785-0.151911 1.06651-0.355431L1.06651-2.71521C1.6848-2.41251 2.31855-2.18579 2.96774-2.03509 3.61953-1.88696 4.28161-1.81354 4.9514-1.81354 5.55551-1.81354 6.0102-1.89598 6.31678-2.06085 6.62592-2.22831 6.78048-2.47819 6.78048-2.80794 6.78048-3.08617 6.67356-3.29228 6.46103-3.42623 6.25107-3.56277 5.83245-3.66968 5.20384-3.74568L4.65771-3.81266C3.27301-3.98784 2.30307-4.30857 1.74661-4.77616 1.19273-5.24247 0.917086-5.95348 0.917086-6.90927 0.917086-7.93975 1.26873-8.7023 1.97332-9.19693 2.68047-9.69413 3.76249-9.94402 5.21934-9.94402 5.79255-9.94402 6.39409-9.89894 7.0227-9.81006 7.65127-9.72375 8.33656-9.58979 9.07851-9.40816Z" transform="matrix(0.585447 0.810733 -0.810718 0.585437 596.842 537.586)"/><path d="M6.11065-7.72348C5.42282-7.72348 4.89983-7.47616 4.53918-6.98153 4.17853-6.4869 3.99819-5.77589 3.99819-4.84843 3.99819-3.91714 4.17853-3.2048 4.53918-2.71017 4.89984-2.21554 5.42282-1.96823 6.11065-1.96823 6.78691-1.96823 7.30344-2.21554 7.66152-2.71017 8.0222-3.2048 8.20251-3.91714 8.20251-4.84843 8.20251-5.77586 8.02217-6.4869 7.66152-6.98153 7.30344-7.47616 6.78691-7.72348 6.11065-7.72348ZM6.11065-9.94417C7.7826-9.94417 9.08872-9.49204 10.0265-8.58908 10.9642-7.68869 11.4331-6.44182 11.4331-4.84836 11.4331-3.2511 10.9642-2.00038 10.0265-1.09742 9.08872-0.197027 7.7826 0.252525 6.11065 0.252525 4.43356 0.252525 3.12355-0.197027 2.17934-1.09742 1.23387-2.00038 0.762422-3.2511 0.762422-4.84836 0.762422-6.44173 1.23387-7.68862 2.17934-8.58908 3.12352-9.49204 4.4335-9.94417 6.11065-9.94417Z" transform="matrix(0.585447 0.810733 -0.810718 0.585437 603.03 546.154)"/><path d="M7.87813-13.4889 7.87813-11.4537 6.16239-11.4537C5.72188-11.4537 5.41659-11.3725 5.24528-11.2115 5.07268-11.0531 4.98766-10.7787 4.98766-10.3871L4.98766-9.71216 7.63598-9.71216 7.63598-7.49147 4.98766-7.49147 4.98766 0.000191257 1.88076 0.000191257 1.88076-7.49147 0.34019-7.49147 0.34019-9.71216 1.88076-9.71216 1.88076-10.3871C1.88076-11.4446 2.17445-12.2265 2.76183-12.7315 3.35179-13.2364 4.26633-13.4889 5.5029-13.4889Z" transform="matrix(0.585447 0.810733 -0.810718 0.585437 610.171 556.044)"/><path d="M4.87936-12.4686 4.87936-9.71209 8.07898-9.71209 8.07898-7.4914 4.87936-7.4914 4.87936-3.37476C4.87936-2.92135 4.96823-2.61478 5.14728-2.45765 5.3289-2.29921 5.68442-2.22064 6.21383-2.22064L7.81109-2.22064 7.81109 4.9463e-05 5.14731 4.9463e-05C3.92363 4.9463e-05 3.05675-0.254995 2.54536-0.767649 2.0327-1.27903 1.77767-2.14849 1.77767-3.37474L1.77767-7.49138 0.231948-7.49138 0.231948-9.71207 1.77767-9.71207 1.77767-12.4686Z" transform="matrix(0.585447 0.810733 -0.810718 0.585437 614.693 562.307)"/><path d="M1.62816-12.9428 4.96691-12.9428 4.96691-2.52459 10.8302-2.52459 10.8302 6.59506e-05 1.62816 6.59506e-05Z" transform="matrix(0.585447 0.810733 -0.810718 0.585437 619.663 569.189)"/></g></g></g></g></svg>